# xmcd CD database file
#
# Track frame offsets:
#	150
#	27357
#	60300
#	91802
#	130647
#	153000
#	194625
#	224860
#
# Disc length: 3236 seconds
#
# Revision: 0
# Processed by: cddbd v1.4PL0 Copyright (c) Steve Scherf et al.
# Submitted via: CDex 1.50
#
DISCID=680ca208
DTITLE=Gustavo Gregorio - Mambonga
DYEAR=1900
DGENRE=Jazz
TTITLE0=My Favorite Chair  
TTITLE1=Zambaba  
TTITLE2=Manbonga  
TTITLE3=Milonga del aparcero en Querencia ajena 
TTITLE4=Chacareblus del gaucho matrero  
TTITLE5=Bill Evans was born in Juluy  
TTITLE6=Homenaje  
TTITLE7=Malambo del buen sastre 
EXTD=
EXTT0=
EXTT1=
EXTT2=
EXTT3=
EXTT4=
EXTT5=
EXTT6=
EXTT7=
PLAYORDER=
